<mxfile host="app.diagrams.net" modified="2024-01-31T04:11:42.655Z" agent="Mozilla/5.0 (X11; Linux x86_64) AppleWebKit/537.36 (KHTML, like Gecko) Chrome/116.0.0.0 Safari/537.36" etag="z5pkE62a28j0tm-T_BZE" version="23.0.2" type="github">
  <diagram id="yPxyJZ8AM_hMuL3Unpa9" name="complex gitflow">
    <mxGraphModel dx="1434" dy="723" grid="1" gridSize="10" guides="1" tooltips="1" connect="1" arrows="1" fold="1" page="1" pageScale="1" pageWidth="1100" pageHeight="850" math="0" shadow="0">
      <root>
        <mxCell id="0" />
        <mxCell id="1" parent="0" />
        <mxCell id="uWUnNED6HEl2aK5fdaIb-7" value="&lt;font&gt;&lt;font&gt;&lt;font&gt;count大于1&lt;/font&gt;&lt;/font&gt;&lt;/font&gt;" style="text;html=1;strokeColor=none;fillColor=none;align=center;verticalAlign=middle;whiteSpace=wrap;overflow=hidden;" parent="1" vertex="1">
          <mxGeometry x="438.5" y="428" width="80" height="30" as="geometry" />
        </mxCell>
        <mxCell id="uWUnNED6HEl2aK5fdaIb-8" value="" style="edgeStyle=orthogonalEdgeStyle;rounded=0;html=1;jettySize=auto;orthogonalLoop=1;plain-blue;endArrow=none;endFill=0;strokeWidth=4;strokeColor=#000000;entryX=0;entryY=0.5;entryDx=0;entryDy=0;entryPerimeter=0;" parent="1" source="uWUnNED6HEl2aK5fdaIb-10" target="9hBKPDzoitwpIBdzFDQ7-16" edge="1">
          <mxGeometry x="292.25" y="211" as="geometry">
            <mxPoint x="442.25" y="211" as="targetPoint" />
          </mxGeometry>
        </mxCell>
        <mxCell id="uWUnNED6HEl2aK5fdaIb-9" style="edgeStyle=orthogonalEdgeStyle;curved=1;rounded=0;html=1;exitX=1;exitY=0.5;exitPerimeter=0;entryX=0;entryY=0.5;entryPerimeter=0;endArrow=none;endFill=0;jettySize=auto;orthogonalLoop=1;strokeWidth=4;fontSize=15;" parent="1" source="uWUnNED6HEl2aK5fdaIb-10" target="uWUnNED6HEl2aK5fdaIb-15" edge="1">
          <mxGeometry relative="1" as="geometry" />
        </mxCell>
        <mxCell id="uWUnNED6HEl2aK5fdaIb-10" value="" style="verticalLabelPosition=bottom;verticalAlign=top;html=1;strokeWidth=4;shape=mxgraph.flowchart.on-page_reference;plain-blue;gradientColor=none;fillColor=#B5E3Fe;strokeColor=#000000;" parent="1" vertex="1">
          <mxGeometry x="262.25" y="196" width="30" height="30" as="geometry" />
        </mxCell>
        <mxCell id="uWUnNED6HEl2aK5fdaIb-80" value="" style="edgeStyle=orthogonalEdgeStyle;curved=1;rounded=0;orthogonalLoop=1;jettySize=auto;html=1;endArrow=none;endFill=0;strokeWidth=4;entryX=0;entryY=0.5;entryDx=0;entryDy=0;entryPerimeter=0;" parent="1" source="uWUnNED6HEl2aK5fdaIb-11" target="uWUnNED6HEl2aK5fdaIb-109" edge="1">
          <mxGeometry relative="1" as="geometry">
            <mxPoint x="809.2499999999995" y="211" as="targetPoint" />
          </mxGeometry>
        </mxCell>
        <mxCell id="uWUnNED6HEl2aK5fdaIb-11" value="" style="verticalLabelPosition=bottom;verticalAlign=top;html=1;strokeWidth=4;shape=mxgraph.flowchart.on-page_reference;plain-blue;gradientColor=none;strokeColor=#000000;fillColor=#B5E3FE;" parent="1" vertex="1">
          <mxGeometry x="697" y="196" width="30" height="30" as="geometry" />
        </mxCell>
        <mxCell id="uWUnNED6HEl2aK5fdaIb-109" value="" style="verticalLabelPosition=bottom;verticalAlign=top;html=1;strokeWidth=4;shape=mxgraph.flowchart.on-page_reference;plain-blue;gradientColor=none;strokeColor=#33001A;fillColor=#B5E3FE;" parent="1" vertex="1">
          <mxGeometry x="936" y="196" width="30" height="30" as="geometry" />
        </mxCell>
        <mxCell id="uWUnNED6HEl2aK5fdaIb-12" value="" style="edgeStyle=orthogonalEdgeStyle;rounded=0;html=1;jettySize=auto;orthogonalLoop=1;strokeWidth=4;endArrow=none;endFill=0;" parent="1" target="uWUnNED6HEl2aK5fdaIb-10" edge="1">
          <mxGeometry x="192.25" y="211" as="geometry">
            <mxPoint x="150" y="211" as="sourcePoint" />
          </mxGeometry>
        </mxCell>
        <mxCell id="uWUnNED6HEl2aK5fdaIb-14" style="edgeStyle=orthogonalEdgeStyle;curved=1;rounded=0;html=1;exitX=1;exitY=0.5;exitPerimeter=0;endArrow=none;endFill=0;jettySize=auto;orthogonalLoop=1;strokeWidth=4;fontSize=15;" parent="1" source="uWUnNED6HEl2aK5fdaIb-15" target="uWUnNED6HEl2aK5fdaIb-17" edge="1">
          <mxGeometry relative="1" as="geometry" />
        </mxCell>
        <mxCell id="uWUnNED6HEl2aK5fdaIb-15" value="" style="verticalLabelPosition=bottom;verticalAlign=top;html=1;strokeWidth=4;shape=mxgraph.flowchart.on-page_reference;strokeColor=#b85450;fillColor=#f8cecc;" parent="1" vertex="1">
          <mxGeometry x="346.75" y="444" width="30" height="30" as="geometry" />
        </mxCell>
        <mxCell id="uWUnNED6HEl2aK5fdaIb-16" style="edgeStyle=orthogonalEdgeStyle;curved=1;rounded=0;html=1;exitX=1;exitY=0.5;exitPerimeter=0;entryX=0;entryY=0.5;entryPerimeter=0;endArrow=none;endFill=0;jettySize=auto;orthogonalLoop=1;strokeWidth=4;fontSize=15;" parent="1" source="uWUnNED6HEl2aK5fdaIb-17" target="uWUnNED6HEl2aK5fdaIb-19" edge="1">
          <mxGeometry relative="1" as="geometry" />
        </mxCell>
        <mxCell id="uWUnNED6HEl2aK5fdaIb-17" value="SDO" style="verticalLabelPosition=bottom;verticalAlign=top;html=1;strokeWidth=4;shape=mxgraph.flowchart.on-page_reference;strokeColor=#6c8ebf;fillColor=#dae8fc;" parent="1" vertex="1">
          <mxGeometry x="472.25" y="458" width="30" height="30" as="geometry" />
        </mxCell>
        <mxCell id="uWUnNED6HEl2aK5fdaIb-19" value="DA" style="verticalLabelPosition=bottom;verticalAlign=top;html=1;strokeWidth=4;shape=mxgraph.flowchart.on-page_reference;strokeColor=#6c8ebf;fillColor=#dae8fc;" parent="1" vertex="1">
          <mxGeometry x="642.25" y="458" width="30" height="30" as="geometry" />
        </mxCell>
        <mxCell id="uWUnNED6HEl2aK5fdaIb-71" value="" style="edgeStyle=orthogonalEdgeStyle;rounded=0;orthogonalLoop=1;jettySize=auto;html=1;endArrow=none;endFill=0;strokeWidth=4;" parent="1" source="uWUnNED6HEl2aK5fdaIb-69" target="uWUnNED6HEl2aK5fdaIb-70" edge="1">
          <mxGeometry relative="1" as="geometry" />
        </mxCell>
        <mxCell id="uWUnNED6HEl2aK5fdaIb-75" style="edgeStyle=orthogonalEdgeStyle;rounded=0;orthogonalLoop=1;jettySize=auto;html=1;entryX=1;entryY=0.5;entryDx=0;entryDy=0;entryPerimeter=0;endArrow=none;endFill=0;strokeWidth=4;curved=1;" parent="1" source="uWUnNED6HEl2aK5fdaIb-69" target="uWUnNED6HEl2aK5fdaIb-15" edge="1">
          <mxGeometry relative="1" as="geometry" />
        </mxCell>
        <mxCell id="uWUnNED6HEl2aK5fdaIb-69" value="&lt;br&gt;&lt;font style=&quot;display: none !important;&quot; class=&quot;transmart-tgt-font transmart-tgt-font-container&quot;&gt;SD&lt;/font&gt;" style="verticalLabelPosition=bottom;verticalAlign=top;html=1;strokeWidth=4;shape=mxgraph.flowchart.on-page_reference;strokeColor=#6c8ebf;fillColor=#dae8fc;" parent="1" vertex="1">
          <mxGeometry x="473.38" y="515" width="30" height="30" as="geometry" />
        </mxCell>
        <mxCell id="uWUnNED6HEl2aK5fdaIb-78" value="" style="edgeStyle=orthogonalEdgeStyle;curved=1;rounded=0;orthogonalLoop=1;jettySize=auto;html=1;endArrow=none;endFill=0;strokeWidth=4;" parent="1" source="uWUnNED6HEl2aK5fdaIb-70" target="uWUnNED6HEl2aK5fdaIb-77" edge="1">
          <mxGeometry relative="1" as="geometry" />
        </mxCell>
        <mxCell id="uWUnNED6HEl2aK5fdaIb-70" value="" style="verticalLabelPosition=bottom;verticalAlign=top;html=1;strokeWidth=4;shape=mxgraph.flowchart.on-page_reference;strokeColor=#6c8ebf;fillColor=#dae8fc;" parent="1" vertex="1">
          <mxGeometry x="643.38" y="514" width="30" height="30" as="geometry" />
        </mxCell>
        <mxCell id="uWUnNED6HEl2aK5fdaIb-77" value="" style="verticalLabelPosition=bottom;verticalAlign=top;html=1;strokeWidth=4;shape=mxgraph.flowchart.on-page_reference;strokeColor=#6c8ebf;fillColor=#dae8fc;" parent="1" vertex="1">
          <mxGeometry x="882.38" y="514" width="30" height="30" as="geometry" />
        </mxCell>
        <mxCell id="uWUnNED6HEl2aK5fdaIb-101" value="&lt;font&gt;DA&lt;/font&gt;" style="text;html=1;strokeColor=none;fillColor=none;align=center;verticalAlign=middle;whiteSpace=wrap;overflow=hidden;fontSize=14;" parent="1" vertex="1">
          <mxGeometry x="665" y="170" width="110" height="20" as="geometry" />
        </mxCell>
        <mxCell id="uWUnNED6HEl2aK5fdaIb-103" value="&lt;font&gt;DO&lt;/font&gt;&lt;font style=&quot;display: none !important;&quot; class=&quot;transmart-tgt-font transmart-tgt-font-container&quot;&gt;做&lt;/font&gt;" style="text;html=1;strokeColor=none;fillColor=none;align=center;verticalAlign=middle;whiteSpace=wrap;overflow=hidden;fontSize=14;" parent="1" vertex="1">
          <mxGeometry x="242.25" y="170" width="70" height="20" as="geometry" />
        </mxCell>
        <mxCell id="uWUnNED6HEl2aK5fdaIb-104" value="&lt;font&gt;DBA&lt;br&gt;&lt;/font&gt;&lt;font style=&quot;display: none !important;&quot; class=&quot;transmart-tgt-font transmart-tgt-font-container&quot;&gt;B&lt;/font&gt;&lt;br&gt;&lt;font style=&quot;display: none !important;&quot; class=&quot;transmart-tgt-font transmart-tgt-font-container&quot;&gt;B&lt;/font&gt;" style="verticalLabelPosition=bottom;verticalAlign=top;html=1;strokeWidth=4;shape=mxgraph.flowchart.on-page_reference;strokeColor=#6c8ebf;fillColor=#dae8fc;" parent="1" vertex="1">
          <mxGeometry x="881.25" y="449" width="30" height="30" as="geometry" />
        </mxCell>
        <mxCell id="uWUnNED6HEl2aK5fdaIb-116" value="&lt;font&gt;BDA&lt;/font&gt;" style="text;html=1;strokeColor=none;fillColor=none;align=center;verticalAlign=middle;whiteSpace=wrap;overflow=hidden;fontSize=14;" parent="1" vertex="1">
          <mxGeometry x="887" y="168" width="110" height="20" as="geometry" />
        </mxCell>
        <mxCell id="fSnZ5vnYTslC5NarKmr_-9" value="" style="edgeStyle=orthogonalEdgeStyle;rounded=0;orthogonalLoop=1;jettySize=auto;html=1;fontSize=12;fontColor=#000000;entryX=0;entryY=0.5;entryDx=0;entryDy=0;" parent="1" target="uWUnNED6HEl2aK5fdaIb-103" edge="1">
          <mxGeometry relative="1" as="geometry">
            <mxPoint x="222.25" y="180" as="targetPoint" />
            <Array as="points">
              <mxPoint x="222.25" y="180" />
              <mxPoint x="222.25" y="180" />
            </Array>
            <mxPoint x="214.5" y="180" as="sourcePoint" />
          </mxGeometry>
        </mxCell>
        <mxCell id="9hBKPDzoitwpIBdzFDQ7-21" value="" style="edgeStyle=orthogonalEdgeStyle;rounded=0;orthogonalLoop=1;jettySize=auto;html=1;fontSize=15;endArrow=none;endFill=0;strokeWidth=4;entryX=0;entryY=0.5;entryDx=0;entryDy=0;entryPerimeter=0;" parent="1" source="9hBKPDzoitwpIBdzFDQ7-16" target="uWUnNED6HEl2aK5fdaIb-11" edge="1">
          <mxGeometry relative="1" as="geometry">
            <mxPoint x="560.25" y="211" as="targetPoint" />
          </mxGeometry>
        </mxCell>
        <mxCell id="9hBKPDzoitwpIBdzFDQ7-16" value="" style="verticalLabelPosition=bottom;verticalAlign=top;html=1;strokeWidth=4;shape=mxgraph.flowchart.on-page_reference;strokeColor=#6c8ebf;fillColor=#dae8fc;" parent="1" vertex="1">
          <mxGeometry x="452.25" y="196" width="30" height="30" as="geometry" />
        </mxCell>
        <mxCell id="9hBKPDzoitwpIBdzFDQ7-61" value="SDO" style="text;html=1;strokeColor=none;fillColor=none;align=center;verticalAlign=middle;whiteSpace=wrap;overflow=hidden;fontSize=14;" parent="1" vertex="1">
          <mxGeometry x="428.5" y="170" width="70" height="20" as="geometry" />
        </mxCell>
        <mxCell id="YAp-t9_kWDEZAxPkfOaO-1" value="&lt;span style=&quot;text-align: center; font-size: 11px;&quot;&gt;&lt;font&gt;count&lt;/font&gt;&lt;font style=&quot;display: none !important;&quot; class=&quot;transmart-tgt-font transmart-tgt-font-container&quot;&gt;计数&lt;/font&gt;&lt;/span&gt;" style="text;html=1;strokeColor=none;fillColor=none;align=left;verticalAlign=middle;whiteSpace=wrap;overflow=hidden;fontSize=11;fontStyle=0;fontColor=#000000;" vertex="1" parent="1">
          <mxGeometry x="214.5" y="120" width="120" height="38" as="geometry" />
        </mxCell>
        <mxCell id="YAp-t9_kWDEZAxPkfOaO-2" value="&lt;span style=&quot;text-align: center; font-size: 11px;&quot;&gt;&lt;font&gt;&lt;font&gt;count&amp;nbsp; 小于2&lt;/font&gt;&lt;font style=&quot;display: none !important;&quot; class=&quot;transmart-tgt-font transmart-tgt-font-container&quot;&gt;计数=&lt;/font&gt;&lt;/font&gt;&lt;font style=&quot;display: none !important;&quot; class=&quot;transmart-tgt-font transmart-tgt-font-container&quot;&gt;计数&lt;/font&gt;&lt;/span&gt;" style="text;html=1;strokeColor=none;fillColor=none;align=left;verticalAlign=middle;whiteSpace=wrap;overflow=hidden;fontSize=11;fontStyle=0;fontColor=#000000;" vertex="1" parent="1">
          <mxGeometry x="407.25" y="120" width="120" height="38" as="geometry" />
        </mxCell>
        <mxCell id="YAp-t9_kWDEZAxPkfOaO-3" value="&lt;span style=&quot;text-align: center; font-size: 11px;&quot;&gt;&lt;font&gt;&lt;font&gt;count 小于2&lt;/font&gt;&lt;font style=&quot;display: none !important;&quot; class=&quot;transmart-tgt-font transmart-tgt-font-container&quot;&gt;计数&lt;/font&gt;&lt;/font&gt;&lt;font style=&quot;display: none !important;&quot; class=&quot;transmart-tgt-font transmart-tgt-font-container&quot;&gt;计数&lt;/font&gt;&lt;/span&gt;" style="text;html=1;strokeColor=none;fillColor=none;align=left;verticalAlign=middle;whiteSpace=wrap;overflow=hidden;fontSize=11;fontStyle=0;fontColor=#000000;" vertex="1" parent="1">
          <mxGeometry x="660" y="120" width="120" height="38" as="geometry" />
        </mxCell>
        <mxCell id="YAp-t9_kWDEZAxPkfOaO-4" value="&lt;span style=&quot;text-align: center; font-size: 11px;&quot;&gt;&lt;font&gt;&lt;font&gt;&lt;font&gt;count 小于2&lt;/font&gt;&lt;/font&gt;&lt;font style=&quot;display: none !important;&quot; class=&quot;transmart-tgt-font transmart-tgt-font-container&quot;&gt;计数&lt;/font&gt;&lt;/font&gt;&lt;font style=&quot;display: none !important;&quot; class=&quot;transmart-tgt-font transmart-tgt-font-container&quot;&gt;计数&lt;/font&gt;&lt;/span&gt;" style="text;html=1;strokeColor=none;fillColor=none;align=left;verticalAlign=middle;whiteSpace=wrap;overflow=hidden;fontSize=11;fontStyle=0;fontColor=#000000;" vertex="1" parent="1">
          <mxGeometry x="882" y="120" width="120" height="38" as="geometry" />
        </mxCell>
        <mxCell id="YAp-t9_kWDEZAxPkfOaO-5" value="&lt;font&gt;&lt;font&gt;SDOGroup&lt;/font&gt;&lt;font style=&quot;display: none !important;&quot; class=&quot;transmart-tgt-font transmart-tgt-font-container&quot;&gt;SDO集团&lt;/font&gt;&lt;/font&gt;&lt;font style=&quot;display: none !important;&quot; class=&quot;transmart-tgt-font transmart-tgt-font-container&quot;&gt;文本&lt;/font&gt;" style="text;html=1;align=center;verticalAlign=middle;resizable=0;points=[];autosize=1;strokeColor=none;fillColor=none;" vertex="1" parent="1">
          <mxGeometry x="320" y="416" width="80" height="30" as="geometry" />
        </mxCell>
        <mxCell id="YAp-t9_kWDEZAxPkfOaO-8" value="" style="edgeStyle=orthogonalEdgeStyle;curved=1;rounded=0;orthogonalLoop=1;jettySize=auto;html=1;endArrow=none;endFill=0;strokeWidth=4;" edge="1" parent="1">
          <mxGeometry relative="1" as="geometry">
            <mxPoint x="672.25" y="474" as="sourcePoint" />
            <mxPoint x="881.25" y="474" as="targetPoint" />
          </mxGeometry>
        </mxCell>
        <mxCell id="YAp-t9_kWDEZAxPkfOaO-9" value="&lt;font&gt;&lt;font&gt;&lt;font&gt;count大于1&lt;/font&gt;&lt;/font&gt;&lt;/font&gt;" style="text;html=1;strokeColor=none;fillColor=none;align=center;verticalAlign=middle;whiteSpace=wrap;overflow=hidden;" vertex="1" parent="1">
          <mxGeometry x="619.63" y="300" width="80" height="30" as="geometry" />
        </mxCell>
        <mxCell id="YAp-t9_kWDEZAxPkfOaO-10" style="edgeStyle=orthogonalEdgeStyle;curved=1;rounded=0;html=1;exitX=1;exitY=0.5;exitPerimeter=0;endArrow=none;endFill=0;jettySize=auto;orthogonalLoop=1;strokeWidth=4;fontSize=15;" edge="1" parent="1" source="YAp-t9_kWDEZAxPkfOaO-11" target="YAp-t9_kWDEZAxPkfOaO-13">
          <mxGeometry relative="1" as="geometry" />
        </mxCell>
        <mxCell id="YAp-t9_kWDEZAxPkfOaO-11" value="" style="verticalLabelPosition=bottom;verticalAlign=top;html=1;strokeWidth=4;shape=mxgraph.flowchart.on-page_reference;strokeColor=#b85450;fillColor=#f8cecc;" vertex="1" parent="1">
          <mxGeometry x="527.88" y="316" width="30" height="30" as="geometry" />
        </mxCell>
        <mxCell id="YAp-t9_kWDEZAxPkfOaO-12" style="edgeStyle=orthogonalEdgeStyle;curved=1;rounded=0;html=1;exitX=1;exitY=0.5;exitPerimeter=0;entryX=0;entryY=0.5;entryPerimeter=0;endArrow=none;endFill=0;jettySize=auto;orthogonalLoop=1;strokeWidth=4;fontSize=15;" edge="1" parent="1" source="YAp-t9_kWDEZAxPkfOaO-13" target="YAp-t9_kWDEZAxPkfOaO-14">
          <mxGeometry relative="1" as="geometry" />
        </mxCell>
        <mxCell id="YAp-t9_kWDEZAxPkfOaO-13" value="DA&lt;br&gt;&lt;font style=&quot;display: none !important;&quot; class=&quot;transmart-tgt-font transmart-tgt-font-container&quot;&gt;D&lt;/font&gt;" style="verticalLabelPosition=bottom;verticalAlign=top;html=1;strokeWidth=4;shape=mxgraph.flowchart.on-page_reference;strokeColor=#6c8ebf;fillColor=#dae8fc;" vertex="1" parent="1">
          <mxGeometry x="653.38" y="330" width="30" height="30" as="geometry" />
        </mxCell>
        <mxCell id="YAp-t9_kWDEZAxPkfOaO-14" value="&lt;font&gt;DBA&lt;/font&gt;&lt;font style=&quot;display: none !important;&quot; class=&quot;transmart-tgt-font transmart-tgt-font-container&quot;&gt;B&lt;/font&gt;" style="verticalLabelPosition=bottom;verticalAlign=top;html=1;strokeWidth=4;shape=mxgraph.flowchart.on-page_reference;strokeColor=#6c8ebf;fillColor=#dae8fc;" vertex="1" parent="1">
          <mxGeometry x="823.38" y="330" width="30" height="30" as="geometry" />
        </mxCell>
        <mxCell id="YAp-t9_kWDEZAxPkfOaO-15" value="" style="edgeStyle=orthogonalEdgeStyle;rounded=0;orthogonalLoop=1;jettySize=auto;html=1;endArrow=none;endFill=0;strokeWidth=4;" edge="1" parent="1" source="YAp-t9_kWDEZAxPkfOaO-17" target="YAp-t9_kWDEZAxPkfOaO-18">
          <mxGeometry relative="1" as="geometry" />
        </mxCell>
        <mxCell id="YAp-t9_kWDEZAxPkfOaO-16" style="edgeStyle=orthogonalEdgeStyle;rounded=0;orthogonalLoop=1;jettySize=auto;html=1;entryX=1;entryY=0.5;entryDx=0;entryDy=0;entryPerimeter=0;endArrow=none;endFill=0;strokeWidth=4;curved=1;" edge="1" parent="1" source="YAp-t9_kWDEZAxPkfOaO-17" target="YAp-t9_kWDEZAxPkfOaO-11">
          <mxGeometry relative="1" as="geometry" />
        </mxCell>
        <mxCell id="YAp-t9_kWDEZAxPkfOaO-17" value="&lt;font&gt;&lt;br&gt;&lt;font style=&quot;display: none !important;&quot; class=&quot;transmart-tgt-font transmart-tgt-font-container&quot;&gt;D&lt;/font&gt;&lt;/font&gt;&lt;font style=&quot;display: none !important;&quot; class=&quot;transmart-tgt-font transmart-tgt-font-container&quot;&gt;SD&lt;/font&gt;" style="verticalLabelPosition=bottom;verticalAlign=top;html=1;strokeWidth=4;shape=mxgraph.flowchart.on-page_reference;strokeColor=#6c8ebf;fillColor=#dae8fc;" vertex="1" parent="1">
          <mxGeometry x="653.38" y="386" width="30" height="30" as="geometry" />
        </mxCell>
        <mxCell id="YAp-t9_kWDEZAxPkfOaO-18" value="" style="verticalLabelPosition=bottom;verticalAlign=top;html=1;strokeWidth=4;shape=mxgraph.flowchart.on-page_reference;strokeColor=#6c8ebf;fillColor=#dae8fc;" vertex="1" parent="1">
          <mxGeometry x="823.38" y="385" width="30" height="30" as="geometry" />
        </mxCell>
        <mxCell id="YAp-t9_kWDEZAxPkfOaO-19" value="&lt;font&gt;&lt;font&gt;&lt;font&gt;DAGroup&lt;/font&gt;&lt;font style=&quot;display: none !important;&quot; class=&quot;transmart-tgt-font transmart-tgt-font-container&quot;&gt;SDO集团&lt;/font&gt;&lt;/font&gt;&lt;font style=&quot;display: none !important;&quot; class=&quot;transmart-tgt-font transmart-tgt-font-container&quot;&gt;SDO集团&lt;/font&gt;&lt;/font&gt;&lt;font style=&quot;display: none !important;&quot; class=&quot;transmart-tgt-font transmart-tgt-font-container&quot;&gt;文本&lt;/font&gt;" style="text;html=1;align=center;verticalAlign=middle;resizable=0;points=[];autosize=1;strokeColor=none;fillColor=none;" vertex="1" parent="1">
          <mxGeometry x="518.5" y="280" width="70" height="30" as="geometry" />
        </mxCell>
        <mxCell id="YAp-t9_kWDEZAxPkfOaO-20" value="&lt;font&gt;&lt;font&gt;&lt;font&gt;count大于1&lt;/font&gt;&lt;/font&gt;&lt;/font&gt;" style="text;html=1;strokeColor=none;fillColor=none;align=center;verticalAlign=middle;whiteSpace=wrap;overflow=hidden;" vertex="1" parent="1">
          <mxGeometry x="899.01" y="230" width="80" height="30" as="geometry" />
        </mxCell>
        <mxCell id="YAp-t9_kWDEZAxPkfOaO-21" style="edgeStyle=orthogonalEdgeStyle;curved=1;rounded=0;html=1;exitX=1;exitY=0.5;exitPerimeter=0;endArrow=none;endFill=0;jettySize=auto;orthogonalLoop=1;strokeWidth=4;fontSize=15;" edge="1" parent="1" source="YAp-t9_kWDEZAxPkfOaO-22" target="YAp-t9_kWDEZAxPkfOaO-23">
          <mxGeometry relative="1" as="geometry" />
        </mxCell>
        <mxCell id="YAp-t9_kWDEZAxPkfOaO-22" value="" style="verticalLabelPosition=bottom;verticalAlign=top;html=1;strokeWidth=4;shape=mxgraph.flowchart.on-page_reference;strokeColor=#b85450;fillColor=#f8cecc;" vertex="1" parent="1">
          <mxGeometry x="807.26" y="246" width="30" height="30" as="geometry" />
        </mxCell>
        <mxCell id="YAp-t9_kWDEZAxPkfOaO-23" value="&lt;font&gt;BDA&lt;/font&gt;&lt;font style=&quot;display: none !important;&quot; class=&quot;transmart-tgt-font transmart-tgt-font-container&quot;&gt;B&lt;/font&gt;" style="verticalLabelPosition=bottom;verticalAlign=top;html=1;strokeWidth=4;shape=mxgraph.flowchart.on-page_reference;strokeColor=#6c8ebf;fillColor=#dae8fc;" vertex="1" parent="1">
          <mxGeometry x="932.76" y="260" width="30" height="30" as="geometry" />
        </mxCell>
        <mxCell id="YAp-t9_kWDEZAxPkfOaO-24" style="edgeStyle=orthogonalEdgeStyle;rounded=0;orthogonalLoop=1;jettySize=auto;html=1;entryX=1;entryY=0.5;entryDx=0;entryDy=0;entryPerimeter=0;endArrow=none;endFill=0;strokeWidth=4;curved=1;" edge="1" parent="1" source="YAp-t9_kWDEZAxPkfOaO-25" target="YAp-t9_kWDEZAxPkfOaO-22">
          <mxGeometry relative="1" as="geometry" />
        </mxCell>
        <mxCell id="YAp-t9_kWDEZAxPkfOaO-25" value="&lt;br&gt;&lt;font style=&quot;display: none !important;&quot; class=&quot;transmart-tgt-font transmart-tgt-font-container&quot;&gt;SD&lt;/font&gt;" style="verticalLabelPosition=bottom;verticalAlign=top;html=1;strokeWidth=4;shape=mxgraph.flowchart.on-page_reference;strokeColor=#6c8ebf;fillColor=#dae8fc;" vertex="1" parent="1">
          <mxGeometry x="934.01" y="312" width="31.99" height="28" as="geometry" />
        </mxCell>
        <mxCell id="YAp-t9_kWDEZAxPkfOaO-29" value="" style="edgeStyle=orthogonalEdgeStyle;rounded=0;orthogonalLoop=1;jettySize=auto;html=1;fontSize=15;endArrow=none;endFill=0;strokeWidth=4;entryX=0;entryY=0.5;entryDx=0;entryDy=0;entryPerimeter=0;exitX=1;exitY=0.5;exitDx=0;exitDy=0;exitPerimeter=0;" edge="1" parent="1" source="9hBKPDzoitwpIBdzFDQ7-16" target="YAp-t9_kWDEZAxPkfOaO-11">
          <mxGeometry relative="1" as="geometry">
            <mxPoint x="632" y="221" as="targetPoint" />
            <mxPoint x="492" y="221" as="sourcePoint" />
          </mxGeometry>
        </mxCell>
        <mxCell id="YAp-t9_kWDEZAxPkfOaO-30" value="" style="edgeStyle=orthogonalEdgeStyle;curved=1;rounded=0;orthogonalLoop=1;jettySize=auto;html=1;endArrow=none;endFill=0;strokeWidth=4;entryX=0;entryY=0.5;entryDx=0;entryDy=0;entryPerimeter=0;exitX=1;exitY=0.5;exitDx=0;exitDy=0;exitPerimeter=0;" edge="1" parent="1" source="uWUnNED6HEl2aK5fdaIb-11" target="YAp-t9_kWDEZAxPkfOaO-22">
          <mxGeometry relative="1" as="geometry">
            <mxPoint x="945.75" y="221" as="targetPoint" />
            <mxPoint x="736.75" y="221" as="sourcePoint" />
          </mxGeometry>
        </mxCell>
        <mxCell id="YAp-t9_kWDEZAxPkfOaO-32" value="&lt;font&gt;BDAGroup&lt;br&gt;&lt;/font&gt;&lt;font style=&quot;display: none !important;&quot; class=&quot;transmart-tgt-font transmart-tgt-font-container&quot;&gt;文本&lt;/font&gt;" style="text;html=1;align=center;verticalAlign=middle;resizable=0;points=[];autosize=1;strokeColor=none;fillColor=none;" vertex="1" parent="1">
          <mxGeometry x="774.75" y="218" width="80" height="30" as="geometry" />
        </mxCell>
      </root>
    </mxGraphModel>
  </diagram>
</mxfile>
